<svg id="Group_1758" data-name="Group 1758" xmlns="http://www.w3.org/2000/svg" width="201.74" height="229.335" viewBox="0 0 201.74 229.335">
  <g id="Group_1689" data-name="Group 1689" transform="translate(41.084 0)">
    <g id="Group_1685" data-name="Group 1685">
      <path id="Path_12" data-name="Path 12" d="M238.44,271.658H146.416a14.648,14.648,0,0,1-14.648-14.648V71.131a14.648,14.648,0,0,1,14.648-14.648H238.44a14.648,14.648,0,0,1,14.648,14.648V257.009A14.648,14.648,0,0,1,238.44,271.658Z" transform="translate(-129.327 -42.323)" fill="#2626bc" opacity="0.1"/>
      <path id="Path_13" data-name="Path 13" d="M238.44,247.658H146.416a14.648,14.648,0,0,1-14.648-14.648V47.131a14.648,14.648,0,0,1,14.648-14.648H238.44a14.648,14.648,0,0,1,14.648,14.648V233.009A14.648,14.648,0,0,1,238.44,247.658Z" transform="translate(-129.327 -30.042)" fill="#6583fe"/>
      <path id="Path_14" data-name="Path 14" d="M131.77,75.392H253.088V248.663H131.77Z" transform="translate(-129.328 -51.999)" fill="#02ffb3"/>
      <path id="Path_15" data-name="Path 15" d="M131.77,75.392H253.088V153.6H131.77Z" transform="translate(-129.328 -51.999)" fill="#01eca5"/>
      <path id="Path_16" data-name="Path 16" d="M131.77,75.392H253.088v67.9H131.77Z" transform="translate(-129.328 -51.999)" fill="#ffc4df"/>
      <g id="Group_1682" data-name="Group 1682" transform="translate(2.44 54.381)">
        <path id="Path_17" data-name="Path 17" d="M161.42,163.49H134.207a2.442,2.442,0,0,1-2.441-2.441V141.3a2.442,2.442,0,0,1,2.441-2.441H161.42a2.442,2.442,0,0,1,2.441,2.441v19.752A2.442,2.442,0,0,1,161.42,163.49Z" transform="translate(-131.766 -138.855)" fill="#ffa8cf"/>
        <path id="Path_18" data-name="Path 18" d="M344.154,163.49H316.941a2.442,2.442,0,0,1-2.441-2.441V141.3a2.442,2.442,0,0,1,2.441-2.441h27.213A2.442,2.442,0,0,1,346.6,141.3v19.752A2.441,2.441,0,0,1,344.154,163.49Z" transform="translate(-225.274 -138.855)" fill="#ffa8cf"/>
      </g>
      <path id="Path_19" data-name="Path 19" d="M252.576,138.855h-36a2.442,2.442,0,0,0-2.441,2.441v19.752a2.442,2.442,0,0,0,2.441,2.441h6.663a5.9,5.9,0,0,1,5.259,3.13,6.839,6.839,0,0,0,12.158,0,5.9,5.9,0,0,1,5.259-3.13h6.663a2.442,2.442,0,0,0,2.441-2.441V141.3A2.442,2.442,0,0,0,252.576,138.855Z" transform="translate(-171.474 -84.474)" fill="#ffa8cf"/>
      <g id="Group_1683" data-name="Group 1683" transform="translate(2.44 45.482)">
        <path id="Path_20" data-name="Path 20" d="M161.42,145.264H134.207a2.442,2.442,0,0,1-2.441-2.441V123.071a2.442,2.442,0,0,1,2.441-2.441H161.42a2.442,2.442,0,0,1,2.441,2.441v19.752A2.441,2.441,0,0,1,161.42,145.264Z" transform="translate(-131.766 -120.63)" fill="#fff"/>
        <path id="Path_21" data-name="Path 21" d="M344.154,145.264H316.941a2.442,2.442,0,0,1-2.441-2.441V123.071a2.442,2.442,0,0,1,2.441-2.441h27.213a2.442,2.442,0,0,1,2.441,2.441v19.752A2.441,2.441,0,0,1,344.154,145.264Z" transform="translate(-225.274 -120.63)" fill="#fff"/>
      </g>
      <path id="Path_22" data-name="Path 22" d="M235.881,247.54H143.858a17.109,17.109,0,0,1-17.09-17.09V44.573a17.109,17.109,0,0,1,17.09-17.09h92.023a17.109,17.109,0,0,1,17.09,17.09V230.451A17.109,17.109,0,0,1,235.881,247.54ZM143.858,32.366a12.221,12.221,0,0,0-12.207,12.207V230.451a12.221,12.221,0,0,0,12.207,12.207h92.023a12.221,12.221,0,0,0,12.207-12.207V44.573a12.221,12.221,0,0,0-12.207-12.207Z" transform="translate(-126.768 -27.483)" fill="#2626bc"/>
      <g id="Group_1684" data-name="Group 1684" transform="translate(52.123 10.923)">
        <path id="Path_23" data-name="Path 23" d="M253.032,54.736H235.958a2.441,2.441,0,0,1,0-4.883h17.073a2.441,2.441,0,1,1,0,4.883Z" transform="translate(-233.517 -49.853)" fill="#b7c5ff"/>
      </g>
      <circle id="Ellipse_42" data-name="Ellipse 42" cx="2.442" cy="2.442" r="2.442" transform="translate(80.587 10.921)" fill="#b7c5ff"/>
    </g>
    <path id="Path_24" data-name="Path 24" d="M244.086,320.542H174.118a9.765,9.765,0,0,1-9.766-9.766V246.17a9.765,9.765,0,0,1,9.766-9.766h69.968a9.765,9.765,0,0,1,9.766,9.766v64.607A9.765,9.765,0,0,1,244.086,320.542Z" transform="translate(-146 -134.392)" fill="#fff"/>
    <g id="Group_1686" data-name="Group 1686" transform="translate(46.67 85.38)">
      <circle id="Ellipse_43" data-name="Ellipse 43" cx="16.431" cy="16.431" r="16.431" fill="#ff7eb8"/>
      <path id="Path_25" data-name="Path 25" d="M255.613,228.631a8.113,8.113,0,1,0-13.906,5.674,8.08,8.08,0,0,0-2.319,5.669v2.393a16.369,16.369,0,0,0,4.883,1.821v-4.214a3.23,3.23,0,0,1,6.46,0v4.214a16.367,16.367,0,0,0,4.883-1.821v-2.393a8.064,8.064,0,0,0-2.324-5.669A8.084,8.084,0,0,0,255.613,228.631Zm-8.115,3.232a3.23,3.23,0,1,1,3.232-3.232A3.235,3.235,0,0,1,247.5,231.864Z" transform="translate(-231.068 -211.645)" fill="#fff"/>
    </g>
    <g id="Group_1687" data-name="Group 1687" transform="translate(29.244 129.3)">
      <path id="Path_26" data-name="Path 26" d="M194.8,292.289h-5.7a2.441,2.441,0,0,0,0,4.883h5.7a2.441,2.441,0,1,0,0-4.883Z" transform="translate(-186.66 -292.289)" fill="#ff7eb8"/>
      <path id="Path_27" data-name="Path 27" d="M251.933,312.561H189.1a2.441,2.441,0,0,0,0,4.883h62.832a2.441,2.441,0,1,0,0-4.883Z" transform="translate(-186.66 -302.663)" fill="#9fb0fe"/>
    </g>
    <g id="Group_1688" data-name="Group 1688" transform="translate(29.244 155.138)">
      <path id="Path_28" data-name="Path 28" d="M202.129,345.206H189.1a2.441,2.441,0,0,0,0,4.883h13.028a2.441,2.441,0,1,0,0-4.883Z" transform="translate(-186.66 -345.206)" fill="#ff7eb8"/>
      <path id="Path_29" data-name="Path 29" d="M251.933,365.478H189.1a2.441,2.441,0,0,0,0,4.883h62.832a2.441,2.441,0,1,0,0-4.883Z" transform="translate(-186.66 -355.58)" fill="#9fb0fe"/>
    </g>
    <path id="Path_30" data-name="Path 30" d="M252.576,120.63h-36a2.442,2.442,0,0,0-2.441,2.441v19.752a2.442,2.442,0,0,0,2.441,2.441h6.663a5.9,5.9,0,0,1,5.259,3.13,6.839,6.839,0,0,0,12.158,0,5.9,5.9,0,0,1,5.259-3.13h6.663a2.442,2.442,0,0,0,2.441-2.441V123.071A2.442,2.442,0,0,0,252.576,120.63Z" transform="translate(-171.474 -75.148)" fill="#ff7eb8"/>
    <path id="Path_31" data-name="Path 31" d="M339.5,93.874H329.4a2.441,2.441,0,0,0,0,4.883h10.1a2.441,2.441,0,0,0,0-4.883Z" transform="translate(-229.212 -61.457)" fill="#6583fe"/>
  </g>
  <path id="Path_32" data-name="Path 32" d="M66.606,393.474a6.979,6.979,0,1,1,6.979-6.978A6.986,6.986,0,0,1,66.606,393.474Zm0-9.074a2.1,2.1,0,1,0,2.1,2.1A2.1,2.1,0,0,0,66.606,384.4Z" transform="translate(-51.326 -207.626)" fill="#ff5ba8"/>
  <path id="Path_33" data-name="Path 33" d="M431.6,158.588a2.441,2.441,0,0,1-2.441-2.441,2.933,2.933,0,0,0-2.93-2.93,2.441,2.441,0,0,1,0-4.883,2.933,2.933,0,0,0,2.93-2.93,2.441,2.441,0,1,1,4.883,0,2.933,2.933,0,0,0,2.93,2.93,2.441,2.441,0,0,1,0,4.883,2.933,2.933,0,0,0-2.93,2.93A2.441,2.441,0,0,1,431.6,158.588Z" transform="translate(-237.676 -86.576)" fill="#01eca5"/>
  <path id="Path_34" data-name="Path 34" d="M417.6,205.3a2.441,2.441,0,0,1-2.441-2.441,2.933,2.933,0,0,0-2.93-2.93,2.441,2.441,0,0,1,0-4.883,2.933,2.933,0,0,0,2.93-2.93,2.441,2.441,0,0,1,4.883,0,2.933,2.933,0,0,0,2.93,2.93,2.441,2.441,0,1,1,0,4.883,2.933,2.933,0,0,0-2.93,2.93A2.441,2.441,0,0,1,417.6,205.3Z" transform="translate(-230.511 -110.482)" fill="#6583fe"/>
  <path id="Path_35" data-name="Path 35" d="M50.439,311.182A2.442,2.442,0,0,1,48,308.74a2.933,2.933,0,0,0-2.93-2.93,2.441,2.441,0,0,1,0-4.883A2.933,2.933,0,0,0,48,298a2.441,2.441,0,1,1,4.883,0,2.933,2.933,0,0,0,2.93,2.93,2.441,2.441,0,0,1,0,4.883,2.933,2.933,0,0,0-2.93,2.93A2.441,2.441,0,0,1,50.439,311.182Z" transform="translate(-42.627 -164.662)" fill="#01eca5"/>
  <path id="Path_36" data-name="Path 36" d="M80.335,340.831a2.442,2.442,0,0,1-2.441-2.441,2.933,2.933,0,0,0-2.93-2.93,2.441,2.441,0,0,1,0-4.883,2.933,2.933,0,0,0,2.93-2.93,2.441,2.441,0,1,1,4.883,0,2.933,2.933,0,0,0,2.93,2.93,2.441,2.441,0,1,1,0,4.883,2.933,2.933,0,0,0-2.93,2.93A2.442,2.442,0,0,1,80.335,340.831Z" transform="translate(-57.925 -179.833)" fill="#6583fe"/>
</svg>
